<svg xmlns="http://www.w3.org/2000/svg" version="1.1" xmlns:xlink="http://www.w3.org/1999/xlink" xmlns:svgjs="http://svgjs.dev/svgjs" width="1500" height="905" viewBox="0 0 1500 905"><g transform="matrix(1,0,0,1,-0.9079650203890424,-0.708736806499985)"><svg viewBox="0 0 396 239" data-background-color="#000000" preserveAspectRatio="xMidYMid meet" height="905" width="1500" xmlns="http://www.w3.org/2000/svg" xmlns:xlink="http://www.w3.org/1999/xlink"><g id="tight-bounds" transform="matrix(1,0,0,1,0.2399599999999964,0.18719633415456371)"><svg viewBox="0 0 395.52 238.62535742711148" height="238.62535742711148" width="395.52"><rect width="395.52033723461733" height="238.62563449816204" fill="url(#ea5c5e81-2637-4fe8-88fe-2684e27a8a76)" mask="url(#3cf23ba2-49c7-4b9a-ad06-5269332427ce)" data-fill-palette-color="tertiary"></rect><g><svg viewBox="0 0 395.52 238.62535742711148" height="238.62535742711148" width="395.52"><g><svg viewBox="0 0 395.52 238.62535742711148" height="238.62535742711148" width="395.52"><g><svg viewBox="0 0 395.52 238.62535742711148" height="238.62535742711148" width="395.52"><g id="textblocktransform"><svg viewBox="0 0 395.52 238.62535742711148" height="238.62535742711148" width="395.52" id="textblock"><g><svg viewBox="0 0 395.52 238.62535742711148" height="238.62535742711148" width="395.52"><path d="M394.594 51.181C392.735 26.411 387.435 19.525 387.435 19.525 371.165-5.987 350.86-0.488 332.619 3.178 300.414 3.326 268.339 8.776 236.208 11.698 168.767 12.144 100.749 4.813 33.643 22.894 27.339 28.442-6.54 23.984 1.121 54.351 3.129 66.983 10.456 81.003 10.232 92.595 11.236 94.626 12.631 89.969 13.226 92.892 15.309 100.769 18.711 97.053 21.501 101.71 17.614 114.144 20.403 124.497 23.062 135.346 18.377 138.17 12.371 136.833 9.675 146.195 9.396 152.982 7.89 151.694 6.235 151.397 5.026 151.199 2.59 151.942 2.999 154.072 4.394 161.354-1.594 165.565 2.162 172.698-0.422 180.426 3.948 187.114 3.353 195.486 3.278 197.17 3.687 198.607 4.338 199.003 7.22 201.133 3.018 205.295 3.464 209.803 33.029 240.616 65.104 219.314 95.394 233.482 103.259 223.574 97.346 236.999 100.489 234.919 102.943 232.491 104.728 242.548 107.499 236.851 107.927 235.216 107.276 231.352 108.8 232.095 109.6 232.491 110.307 232.392 110.418 230.113 110.586 226.695 109.117 228.825 108.726 227.042 112.947 218.026 111.906 239.476 115.866 238.585 115.68 235.959 114.528 232.194 116.889 232.689 119.232 228.925 119.306 225.804 121.389 234.275 121.463 236.108 121.835 237.396 122.43 238.287 128.938 229.073 135.409 241.557 142.233 237.396 146.417 232.838 150.433 239.873 154.672 238.139 156.16 236.752 157.666 234.275 159.098 238.436 176.632 239.328 195.319 235.612 211.943 238.585 256.364 233.036 303.836 240.863 350.674 233.532 361.719 230.708 373.192 226.695 383.958 223.475 383.958 223.475 392.679 214.657 392.679 175.027S394.538 140.35 394.817 108.794C395.096 77.238 396.398 75.95 394.538 51.181Z" opacity="1" fill="url(#ea5c5e81-2637-4fe8-88fe-2684e27a8a76)" data-fill-palette-color="tertiary"></path><g transform="matrix(1,0,0,1,55.76832,26.230666666666668)"><svg width="283.98335999999995" viewBox="0.05 -35.5 55.45 36.35" height="186.16402409377815" data-palette-color="#000000"><path d="M12.05-35.5Q15.3-35.5 17.78-34.4 20.25-33.3 22.3-31.1L22.3-31.1 18.85-27Q15.85-29.75 12.9-29.75L12.9-29.75Q11.2-29.75 10.25-28.75 9.3-27.75 9.3-26.1L9.3-26.1Q9.3-24.5 10.4-23.48 11.5-22.45 14.65-21.1L14.65-21.1Q17.55-19.8 19.35-18.43 21.15-17.05 22.08-15.05 23-13.05 23-10.1L23-10.1Q23-6.95 21.58-4.45 20.15-1.95 17.5-0.55 14.85 0.85 11.3 0.85L11.3 0.85Q7.6 0.85 4.9-0.45 2.2-1.75 0.05-4.05L0.05-4.05 3.8-8.2Q5.6-6.6 7.23-5.78 8.85-4.95 10.7-4.95L10.7-4.95Q12.75-4.95 13.8-6.18 14.85-7.4 14.85-9.5L14.85-9.5Q14.85-11.4 13.8-12.63 12.75-13.85 10-14.95L10-14.95Q5.2-16.95 3.2-19.38 1.2-21.8 1.2-25.5L1.2-25.5Q1.2-28.45 2.6-30.73 4-33 6.48-34.25 8.95-35.5 12.05-35.5L12.05-35.5ZM48.45-26.55L55.5-26.55 51.1 0 42.3 0 39.8-19.75 37.35 0 28.6 0 24.15-26.55 31.4-26.55 33.4-5.7 36.35-26.55 43.5-26.55 46.3-5.7 48.45-26.55Z" opacity="1" transform="matrix(1,0,0,1,0,0)" fill="#000000" class="wordmark-text-0" data-fill-palette-color="quaternary" id="text-0"></path></svg></g></svg></g></svg></g></svg></g><g></g></svg></g></svg></g><defs></defs><mask id="3cf23ba2-49c7-4b9a-ad06-5269332427ce"><g id="SvgjsG5928"><svg viewBox="0 0 395.52 238.62535742711148" height="238.62535742711148" width="395.52"><g><svg viewBox="0 0 395.52 238.62535742711148" height="238.62535742711148" width="395.52"><g><svg viewBox="0 0 395.52 238.62535742711148" height="238.62535742711148" width="395.52"><g><svg viewBox="0 0 395.52 238.62535742711148" height="238.62535742711148" width="395.52"><g id="SvgjsG5927"><svg viewBox="0 0 395.52 238.62535742711148" height="238.62535742711148" width="395.52" id="SvgjsSvg5926"><g><svg viewBox="0 0 395.52 238.62535742711148" height="238.62535742711148" width="395.52"><path d="M394.594 51.181C392.735 26.411 387.435 19.525 387.435 19.525 371.165-5.987 350.86-0.488 332.619 3.178 300.414 3.326 268.339 8.776 236.208 11.698 168.767 12.144 100.749 4.813 33.643 22.894 27.339 28.442-6.54 23.984 1.121 54.351 3.129 66.983 10.456 81.003 10.232 92.595 11.236 94.626 12.631 89.969 13.226 92.892 15.309 100.769 18.711 97.053 21.501 101.71 17.614 114.144 20.403 124.497 23.062 135.346 18.377 138.17 12.371 136.833 9.675 146.195 9.396 152.982 7.89 151.694 6.235 151.397 5.026 151.199 2.59 151.942 2.999 154.072 4.394 161.354-1.594 165.565 2.162 172.698-0.422 180.426 3.948 187.114 3.353 195.486 3.278 197.17 3.687 198.607 4.338 199.003 7.22 201.133 3.018 205.295 3.464 209.803 33.029 240.616 65.104 219.314 95.394 233.482 103.259 223.574 97.346 236.999 100.489 234.919 102.943 232.491 104.728 242.548 107.499 236.851 107.927 235.216 107.276 231.352 108.8 232.095 109.6 232.491 110.307 232.392 110.418 230.113 110.586 226.695 109.117 228.825 108.726 227.042 112.947 218.026 111.906 239.476 115.866 238.585 115.68 235.959 114.528 232.194 116.889 232.689 119.232 228.925 119.306 225.804 121.389 234.275 121.463 236.108 121.835 237.396 122.43 238.287 128.938 229.073 135.409 241.557 142.233 237.396 146.417 232.838 150.433 239.873 154.672 238.139 156.16 236.752 157.666 234.275 159.098 238.436 176.632 239.328 195.319 235.612 211.943 238.585 256.364 233.036 303.836 240.863 350.674 233.532 361.719 230.708 373.192 226.695 383.958 223.475 383.958 223.475 392.679 214.657 392.679 175.027S394.538 140.35 394.817 108.794C395.096 77.238 396.398 75.95 394.538 51.181Z" opacity="1" fill="white"></path><g transform="matrix(1,0,0,1,55.76832,26.230666666666668)"><svg width="283.98335999999995" viewBox="0.05 -35.5 55.45 36.35" height="186.16402409377815" data-palette-color="#000000"><path d="M12.05-35.5Q15.3-35.5 17.78-34.4 20.25-33.3 22.3-31.1L22.3-31.1 18.85-27Q15.85-29.75 12.9-29.75L12.9-29.75Q11.2-29.75 10.25-28.75 9.3-27.75 9.3-26.1L9.3-26.1Q9.3-24.5 10.4-23.48 11.5-22.45 14.65-21.1L14.65-21.1Q17.55-19.8 19.35-18.43 21.15-17.05 22.08-15.05 23-13.05 23-10.1L23-10.1Q23-6.95 21.58-4.45 20.15-1.95 17.5-0.55 14.85 0.85 11.3 0.85L11.3 0.85Q7.6 0.85 4.9-0.45 2.2-1.75 0.05-4.05L0.05-4.05 3.8-8.2Q5.6-6.6 7.23-5.78 8.85-4.95 10.7-4.95L10.7-4.95Q12.75-4.95 13.8-6.18 14.85-7.4 14.85-9.5L14.85-9.5Q14.85-11.4 13.8-12.63 12.75-13.85 10-14.95L10-14.95Q5.2-16.95 3.2-19.38 1.2-21.8 1.2-25.5L1.2-25.5Q1.2-28.45 2.6-30.73 4-33 6.48-34.25 8.95-35.5 12.05-35.5L12.05-35.5ZM48.45-26.55L55.5-26.55 51.1 0 42.3 0 39.8-19.75 37.35 0 28.6 0 24.15-26.55 31.4-26.55 33.4-5.7 36.35-26.55 43.5-26.55 46.3-5.7 48.45-26.55Z" opacity="1" transform="matrix(1,0,0,1,0,0)" fill="black" class="wordmark-text-0" id="SvgjsPath5925"></path></svg></g></svg></g></svg></g></svg></g><g></g></svg></g></svg></g><defs><mask></mask></defs></svg><rect width="395.52" height="238.62535742711148" fill="black" stroke="none" visibility="hidden"></rect></g></mask><linearGradient x1="0" x2="1" y1="0.5" y2="0.5" id="ea5c5e81-2637-4fe8-88fe-2684e27a8a76"><stop stop-color="#f00b51" offset="0"></stop><stop stop-color="#730062" offset="1"></stop></linearGradient></svg><rect width="395.52" height="238.62535742711148" fill="none" stroke="none" visibility="hidden"></rect></g></svg></g></svg>